<svg width="24" height="24" viewBox="0 0 24 24" fill="none" xmlns="http://www.w3.org/2000/svg">
<path d="M12.7884 8.83427H11.9124C10.2989 8.83427 9.2382 9.96558 9.2382 11.4135V12.5904C9.2382 14.0384 10.2984 15.1697 11.9124 15.1697H12.7884C15.1395 15.1697 14.9548 12.8168 18.5049 12.8168C18.8451 12.8168 19.1813 12.8475 19.5083 12.9071C19.6159 12.3088 19.6159 11.6965 19.5083 11.0978C19.1808 11.1573 18.8451 11.188 18.5049 11.188C14.9548 11.1875 15.1395 8.83427 12.7884 8.83427Z" fill="#E1FFC7"/>
<path d="M21.5473 13.7659C20.941 13.3271 20.2454 13.0406 19.5078 12.9057C19.5065 12.9114 19.5061 12.9171 19.5048 12.9228C19.4417 13.2675 19.3432 13.607 19.2084 13.9363C19.8309 14.0353 20.4043 14.2648 20.8946 14.6174C20.8929 14.6226 20.8915 14.6279 20.8898 14.6336C20.607 15.5345 20.1806 16.3838 19.6234 17.1564C19.0727 17.9193 18.4069 18.5912 17.6439 19.1522C16.0601 20.3182 14.1738 20.934 12.1882 20.934C10.959 20.934 9.767 20.6979 8.64505 20.2323C7.56162 19.7825 6.58806 19.1382 5.75108 18.317C4.91454 17.4958 4.25835 16.5406 3.80003 15.4767C3.32595 14.3756 3.08518 13.2058 3.08518 11.9991C3.08518 10.7925 3.32595 9.62264 3.80003 8.52155C4.25835 7.45813 4.91454 6.50245 5.75108 5.68124C6.58762 4.86002 7.56118 4.21619 8.64505 3.76594C9.76656 3.30037 10.9586 3.0643 12.1882 3.0643C14.1738 3.0643 16.0601 3.6801 17.6439 4.84601C18.4069 5.4075 19.0723 6.07892 19.6234 6.84189C20.1806 7.61493 20.607 8.46417 20.8898 9.36466C20.8915 9.37036 20.8933 9.37561 20.8946 9.38087C20.4048 9.73301 19.8309 9.96339 19.2084 10.0619C19.3432 10.3917 19.4422 10.732 19.5048 11.0767C19.5061 11.0824 19.5065 11.0877 19.5078 11.0934C20.2454 10.9585 20.9406 10.672 21.5473 10.2332C22.1286 9.81097 22.0161 9.33401 21.9277 9.05107C20.6464 4.96864 16.771 2 12.1886 2C6.56136 2 2 6.47705 2 12C2 17.523 6.56179 22 12.1886 22C16.771 22 20.6464 19.0309 21.9277 14.9463C22.0166 14.6651 22.1295 14.1886 21.5473 13.7659Z" fill="#E1FFC7"/>
<path d="M15.7082 14.9713C16.3797 14.387 16.9601 13.8824 18.5049 13.8829C18.7457 13.8829 18.9803 13.9017 19.2093 13.9381C19.2087 13.9395 19.2081 13.9409 19.2075 13.9424C19.2064 13.9452 19.2052 13.948 19.204 13.9512C19.1121 14.1746 19.004 14.3936 18.8792 14.606L17.8461 16.3623C16.8984 17.9732 15.1461 18.9661 13.2506 18.9661H11.184C9.28854 18.9661 7.53623 17.9741 6.5885 16.3623L5.55541 14.606C4.60768 12.9946 4.60768 11.0097 5.55541 9.39793L6.5885 7.64163C7.53623 6.03029 9.28854 5.03739 11.184 5.03739H13.2506C15.1461 5.03739 16.8984 6.02985 17.8461 7.64163L18.8792 9.39793C19.004 9.60992 19.1121 9.82978 19.204 10.0532C19.2052 10.0562 19.2072 10.0588 19.2084 10.0619C19.2088 10.0629 19.2084 10.0641 19.2088 10.0651C18.98 10.1014 18.7455 10.1202 18.5049 10.1202C16.9601 10.1202 16.3797 9.61561 15.7081 9.03135C15.0607 8.46811 14.2552 7.76733 12.7879 7.76733H11.912C10.8517 7.76733 9.88739 8.14487 9.19749 8.83075C8.52379 9.50086 8.15171 10.4171 8.15171 11.4122V12.5891C8.15171 12.5898 8.15171 12.5905 8.15171 12.5912C8.15191 13.586 8.52398 14.5019 9.19749 15.1718C9.88739 15.8577 10.8517 16.2353 11.912 16.2353H12.7879C14.2552 16.2353 15.0607 15.5345 15.7082 14.9713Z" fill="#E1FFC7"/>
</svg>
