<svg width="43" height="47" viewBox="0 0 43 47" fill="none" xmlns="http://www.w3.org/2000/svg">
<path d="M34.3401 34.7258C35.3734 34.7258 36.3739 34.8388 37.3415 35.0647C38.2928 35.2746 39.2113 35.6054 40.097 36.0573C40.9662 36.4931 41.6715 37.1225 42.2127 37.9457C42.7376 38.7526 43 39.6968 43 40.7782C43 42.5213 42.2701 43.99 40.8104 45.1843C39.3179 46.3948 37.1611 47 34.3401 47C33.3232 47 32.3391 46.879 31.3878 46.6369C30.4366 46.3948 29.5509 46.0397 28.7308 45.5716C27.9108 45.1036 27.2547 44.458 26.7627 43.6349C26.2542 42.8118 26 41.8676 26 40.8024C26 39.947 26.1722 39.1723 26.5166 38.4783C26.8447 37.7843 27.2875 37.2113 27.8452 36.7594C28.3864 36.3075 29.026 35.9282 29.7641 35.6216C30.5022 35.2988 31.2566 35.0728 32.0275 34.9437C32.782 34.7984 33.5528 34.7258 34.3401 34.7258ZM34.5123 39.253C31.5929 39.253 30.1331 39.7775 30.1331 40.8266C30.1331 41.1817 30.3054 41.4802 30.6498 41.7223C30.9778 41.9483 31.4124 42.1178 31.9537 42.2307C32.4785 42.3276 32.9378 42.3921 33.3314 42.4244C33.725 42.4567 34.1105 42.4728 34.4877 42.4728C34.8813 42.4728 35.2668 42.4567 35.644 42.4244C36.0212 42.3921 36.4805 42.3356 37.0217 42.2549C37.563 42.1581 38.0058 41.9967 38.3502 41.7708C38.6782 41.5287 38.8423 41.2301 38.8423 40.875C38.8423 40.5199 38.6782 40.2294 38.3502 40.0035C38.0058 39.7614 37.5712 39.5919 37.0463 39.4951C36.5215 39.3982 36.0622 39.3337 35.6686 39.3014C35.275 39.2691 34.8895 39.253 34.5123 39.253Z" fill="#A9FF5C"/>
<path d="M42.7048 21.8613V26.5822C38.5716 28.0832 36.3 28.9063 35.89 29.0515C36.6117 29.0031 37.3333 28.9789 38.055 28.9789H42.7048V33.3366L26.2952 33.3366L26.2952 28.8821C26.2952 27.5263 26.4838 26.4046 26.8611 25.5169C27.2711 24.5809 27.9272 23.8626 28.8292 23.3623C29.7149 22.862 30.699 22.6118 31.7815 22.6118C33.7496 22.6118 35.1192 23.443 35.89 25.1054L42.7048 21.8613ZM33.8973 28.9789V28.6884C33.8973 28.1558 33.6922 27.7362 33.2822 27.4295C32.8722 27.1067 32.3883 26.9453 31.8307 26.9453C30.6006 26.9453 29.9855 27.6232 29.9855 28.9789H33.8973Z" fill="#A9FF5C"/>
<path d="M33.233 9.45549H33.8972C36.6855 9.45549 38.7767 9.81057 40.1708 10.5207C41.0892 10.9888 41.7945 11.6505 42.2865 12.5059C42.7622 13.3613 43 14.3055 43 15.3384C43 16.2422 42.836 17.0573 42.508 17.7835C42.1799 18.4937 41.7453 19.0828 41.2041 19.5508C40.6628 20.0189 40.0232 20.4062 39.2851 20.7129C38.547 21.0195 37.7926 21.2374 37.0217 21.3665C36.2508 21.4957 35.439 21.5602 34.5861 21.5602C33.5036 21.5602 32.4867 21.4553 31.5355 21.2455C30.5678 21.0195 29.6575 20.6806 28.8046 20.2287C27.9518 19.7607 27.2711 19.1151 26.7627 18.2919C26.2542 17.4527 26 16.4682 26 15.3384C26 12.8045 27.3531 10.9565 30.0593 9.79443L31.6339 14.0311C31.2074 14.0795 30.822 14.2086 30.4776 14.4184C30.1331 14.6282 29.9609 14.9268 29.9609 15.3142C29.9609 16.5085 31.6339 17.1057 34.9797 17.1057C37.686 17.1057 39.0391 16.5569 39.0391 15.4594C39.0391 14.9107 38.8013 14.5233 38.3256 14.2974C37.8336 14.0553 37.2841 13.9342 36.6773 13.9342V15.5321H33.233L33.233 9.45549Z" fill="#A9FF5C"/>
<path d="M42.7048 0V8.08596H26.2952L26.2952 7.05838e-07L30.1577 5.39696e-07L30.1577 3.72826L32.5441 3.72826L32.5441 0.387352L36.259 0.387352V3.72826H38.7685V1.69317e-07L42.7048 0Z" fill="#A9FF5C"/>
<path fill-rule="evenodd" clip-rule="evenodd" d="M24 0H0V47H24V0ZM13.3208 12.1214H22V2H2V45H13.3208V28.1094H21.3711V18.3748H13.3208V12.1214Z" fill="#A9FF5C"/>
</svg>
