<svg width="24" height="24" viewBox="0 0 24 24" fill="none" xmlns="http://www.w3.org/2000/svg">
<path d="M13.0571 7.43101C14.0334 6.45469 15.6163 6.45469 16.5926 7.43101C17.5689 8.40732 17.5689 9.99023 16.5926 10.9665C15.6163 11.9429 14.0334 11.9429 13.0571 10.9665C12.0807 9.99023 12.0807 8.40732 13.0571 7.43101ZM15.5319 8.49167C15.1414 8.10114 14.5082 8.10114 14.1177 8.49167C13.7272 8.88219 13.7272 9.51536 14.1177 9.90588C14.5082 10.2964 15.1414 10.2964 15.5319 9.90588C15.9225 9.51536 15.9225 8.88219 15.5319 8.49167ZM19.6976 2.51214C20.5625 2.78056 21.2398 3.4576 21.5086 4.3224L21.715 4.98671C22.4591 7.38087 21.8149 9.99018 20.0421 11.763L19.0442 12.7609C20.0716 14.1306 19.9623 16.0826 18.7165 17.3285L17.474 18.571C17.1811 18.8639 16.7062 18.8639 16.4133 18.571L14.8237 16.9814L14.6469 17.1582C13.9635 17.8416 12.8555 17.8416 12.1721 17.1582L11.685 16.6711L10.8737 18.0615C10.7565 18.2624 10.5528 18.3975 10.3221 18.4273C10.0915 18.4571 9.86006 18.3783 9.69561 18.2138L5.8065 14.3247C5.64309 14.1613 5.56414 13.9317 5.5925 13.7023C5.62087 13.473 5.75339 13.2695 5.95169 13.1509L7.33616 12.3223L6.86548 11.8516C6.18206 11.1682 6.18206 10.0602 6.86548 9.37675L7.04529 9.19694L5.45432 7.60596C5.16142 7.31307 5.16142 6.8382 5.45432 6.5453L6.69685 5.30277C7.94316 4.05646 9.89622 3.94762 11.266 4.97626L12.2618 3.98038C14.034 2.20827 16.642 1.56385 19.0355 2.30667L19.6976 2.51214ZM20.0762 4.76758C19.954 4.37449 19.6461 4.06674 19.253 3.94473L18.5909 3.73927C16.7293 3.16151 14.7008 3.66273 13.3225 5.04104L7.92614 10.4374C7.82851 10.535 7.82851 10.6933 7.92614 10.791L13.2327 16.0975C13.3303 16.1952 13.4886 16.1952 13.5863 16.0975L18.9815 10.7023C20.3603 9.32348 20.8613 7.29401 20.2826 5.43189L20.0762 4.76758ZM6.68987 18.3944C6.98276 18.1015 6.98276 17.6267 6.68987 17.3338C6.39697 17.0409 5.9221 17.0409 5.62921 17.3338L3.15433 19.8087C2.86144 20.1015 2.86144 20.5764 3.15433 20.8693C3.44723 21.1622 3.9221 21.1622 4.21499 20.8693L6.68987 18.3944ZM4.74529 15.3892C5.03818 15.6821 5.03818 16.157 4.74529 16.4499L3.68463 17.5106C3.39173 17.8035 2.91686 17.8035 2.62397 17.5106C2.33107 17.2177 2.33107 16.7428 2.62397 16.4499L3.68463 15.3892C3.97752 15.0963 4.45239 15.0963 4.74529 15.3892ZM8.63238 20.3411C8.92528 20.0482 8.92528 19.5733 8.63239 19.2804C8.33951 18.9875 7.86463 18.9875 7.57173 19.2804L6.51313 20.339C6.22023 20.6319 6.22023 21.1067 6.51312 21.3996C6.80601 21.6925 7.28088 21.6925 7.57378 21.3997L8.63238 20.3411Z" fill="#E1FFC7"/>
</svg>
